<?xml version="1.0" encoding="UTF-8"?>
<svg xmlns="http://www.w3.org/2000/svg" width="1120" height="5320" viewBox="0 0 1120 5320" role="img" aria-labelledby="plot-title plot-desc">
<title id="plot-title">Building-block similarity clusters</title>
<desc id="plot-desc">Morgan fingerprint Tanimoto distance projected into two dimensions. Centroid medoids are shown as labeled diamonds.</desc>
<style>
.background{fill:#FFFFFF}
text{font-family:sans-serif;fill:#1F2937}
.panel-title{font-size:17px;font-weight:500}.sub{font-size:12px;fill:#4B5563}
.axis{stroke:#9CA3AF;stroke-width:1}.axis-label{font-size:11px;fill:#4B5563}
.cluster-label{font-size:11px;font-weight:500}.legend{font-size:12px}
.centroid{stroke:#1F2937}.member-point{stroke:#FFFFFF}
@media(prefers-color-scheme:dark){.background{fill:#111827}text{fill:#F3F4F6}.sub,.axis-label{fill:#D1D5DB}.axis{stroke:#6B7280}.centroid{stroke:#F3F4F6}.member-point{stroke:#111827}}
</style>
<rect width="100%" height="100%" class="background"/>
<g transform="translate(0,20)">
<text x="32" y="26" class="panel-title">rxn_33cc78ec · building block 0</text>
<text x="32" y="47" class="sub">1 unique building blocks · 1 clusters · similarity threshold 0.60</text>
<line x1="72" y1="396" x2="722" y2="396" class="axis"/>
<line x1="72" y1="66" x2="72" y2="396" class="axis"/>
<text x="397.0" y="426" text-anchor="middle" class="axis-label">MDS 1 · Tanimoto distance</text>
<text x="20" y="231.0" text-anchor="middle" transform="rotate(-90 20 231.0)" class="axis-label">MDS 2 · Tanimoto distance</text>
<polygon points="397.0,223.0 405.0,231.0 397.0,239.0 389.0,231.0" fill="#0072B2" class="centroid" stroke-width="1.5"><title>C1 | Oc1ccc(C(F)(F)F)cc1 | occurrences 1 | best score -6.500 | centroid</title></polygon>
<text x="407.0" y="223.0" class="cluster-label">C1</text>
<text x="760" y="48" class="sub">Centroids (diamond)</text>
<polygon points="760,68 766,74 760,80 754,74" fill="#0072B2" class="centroid" stroke-width="1"/>
<text x="774" y="78" class="legend">C1 · n=1 · Oc1ccc(C(F)(F)F)cc1<title>Oc1ccc(C(F)(F)F)cc1</title></text>
<text x="72" y="448" class="sub">Point size reflects recurrence; distance is approximate after 2D projection.</text>
</g>
<g transform="translate(0,460)">
<text x="32" y="26" class="panel-title">rxn_33cc78ec · building block 1</text>
<text x="32" y="47" class="sub">1 unique building blocks · 1 clusters · similarity threshold 0.60</text>
<line x1="72" y1="396" x2="722" y2="396" class="axis"/>
<line x1="72" y1="66" x2="72" y2="396" class="axis"/>
<text x="397.0" y="426" text-anchor="middle" class="axis-label">MDS 1 · Tanimoto distance</text>
<text x="20" y="231.0" text-anchor="middle" transform="rotate(-90 20 231.0)" class="axis-label">MDS 2 · Tanimoto distance</text>
<polygon points="397.0,223.0 405.0,231.0 397.0,239.0 389.0,231.0" fill="#0072B2" class="centroid" stroke-width="1.5"><title>C1 | CC(Br)C(=O)O | occurrences 1 | best score -6.500 | centroid</title></polygon>
<text x="407.0" y="223.0" class="cluster-label">C1</text>
<text x="760" y="48" class="sub">Centroids (diamond)</text>
<polygon points="760,68 766,74 760,80 754,74" fill="#0072B2" class="centroid" stroke-width="1"/>
<text x="774" y="78" class="legend">C1 · n=1 · CC(Br)C(=O)O<title>CC(Br)C(=O)O</title></text>
<text x="72" y="448" class="sub">Point size reflects recurrence; distance is approximate after 2D projection.</text>
</g>
<g transform="translate(0,900)">
<text x="32" y="26" class="panel-title">rxn_45d00d3a · building block 0</text>
<text x="32" y="47" class="sub">4 unique building blocks · 1 clusters · similarity threshold 0.60</text>
<line x1="72" y1="396" x2="722" y2="396" class="axis"/>
<line x1="72" y1="66" x2="72" y2="396" class="axis"/>
<text x="397.0" y="426" text-anchor="middle" class="axis-label">MDS 1 · Tanimoto distance</text>
<text x="20" y="231.0" text-anchor="middle" transform="rotate(-90 20 231.0)" class="axis-label">MDS 2 · Tanimoto distance</text>
<circle cx="90.0" cy="231.0" r="3.5" fill="#0072B2" fill-opacity="0.72" class="member-point" stroke-width="1"><title>C1 | C=CCC(N)C(=O)O | occurrences 1 | best score -6.300</title></circle>
<circle cx="704.0" cy="231.0" r="3.5" fill="#0072B2" fill-opacity="0.72" class="member-point" stroke-width="1"><title>C1 | C=CCC[C@H](N)C(=O)O | occurrences 1 | best score -6.500</title></circle>
<polygon points="90.0,223.0 98.0,231.0 90.0,239.0 82.0,231.0" fill="#0072B2" class="centroid" stroke-width="1.5"><title>C1 | C=CC[C@@H](N)C(=O)O | occurrences 1 | best score -6.600 | centroid</title></polygon>
<text x="100.0" y="223.0" class="cluster-label">C1</text>
<circle cx="90.0" cy="231.0" r="3.5" fill="#0072B2" fill-opacity="0.72" class="member-point" stroke-width="1"><title>C1 | C=CC[C@H](N)C(=O)O | occurrences 1 | best score -5.900</title></circle>
<text x="760" y="48" class="sub">Centroids (diamond)</text>
<polygon points="760,68 766,74 760,80 754,74" fill="#0072B2" class="centroid" stroke-width="1"/>
<text x="774" y="78" class="legend">C1 · n=4 · C=CC[C@@H](N)C(=O)O<title>C=CC[C@@H](N)C(=O)O</title></text>
<text x="72" y="448" class="sub">Point size reflects recurrence; distance is approximate after 2D projection.</text>
</g>
<g transform="translate(0,1340)">
<text x="32" y="26" class="panel-title">rxn_45d00d3a · building block 1</text>
<text x="32" y="47" class="sub">1 unique building blocks · 1 clusters · similarity threshold 0.60</text>
<line x1="72" y1="396" x2="722" y2="396" class="axis"/>
<line x1="72" y1="66" x2="72" y2="396" class="axis"/>
<text x="397.0" y="426" text-anchor="middle" class="axis-label">MDS 1 · Tanimoto distance</text>
<text x="20" y="231.0" text-anchor="middle" transform="rotate(-90 20 231.0)" class="axis-label">MDS 2 · Tanimoto distance</text>
<polygon points="397.0,223.0 405.0,231.0 397.0,239.0 389.0,231.0" fill="#0072B2" class="centroid" stroke-width="1.5"><title>C1 | CNCc1ccc(C(F)(F)F)cn1 | occurrences 4 | best score -6.600 | centroid</title></polygon>
<text x="407.0" y="223.0" class="cluster-label">C1</text>
<text x="760" y="48" class="sub">Centroids (diamond)</text>
<polygon points="760,68 766,74 760,80 754,74" fill="#0072B2" class="centroid" stroke-width="1"/>
<text x="774" y="78" class="legend">C1 · n=1 · CNCc1ccc(C(F)(F)F)cn1<title>CNCc1ccc(C(F)(F)F)cn1</title></text>
<text x="72" y="448" class="sub">Point size reflects recurrence; distance is approximate after 2D projection.</text>
</g>
<g transform="translate(0,1780)">
<text x="32" y="26" class="panel-title">rxn_933507b5 · building block 0</text>
<text x="32" y="47" class="sub">1 unique building blocks · 1 clusters · similarity threshold 0.60</text>
<line x1="72" y1="396" x2="722" y2="396" class="axis"/>
<line x1="72" y1="66" x2="72" y2="396" class="axis"/>
<text x="397.0" y="426" text-anchor="middle" class="axis-label">MDS 1 · Tanimoto distance</text>
<text x="20" y="231.0" text-anchor="middle" transform="rotate(-90 20 231.0)" class="axis-label">MDS 2 · Tanimoto distance</text>
<polygon points="397.0,223.0 405.0,231.0 397.0,239.0 389.0,231.0" fill="#0072B2" class="centroid" stroke-width="1.5"><title>C1 | FC(F)(F)c1ccc(Br)nc1 | occurrences 1 | best score -7.100 | centroid</title></polygon>
<text x="407.0" y="223.0" class="cluster-label">C1</text>
<text x="760" y="48" class="sub">Centroids (diamond)</text>
<polygon points="760,68 766,74 760,80 754,74" fill="#0072B2" class="centroid" stroke-width="1"/>
<text x="774" y="78" class="legend">C1 · n=1 · FC(F)(F)c1ccc(Br)nc1<title>FC(F)(F)c1ccc(Br)nc1</title></text>
<text x="72" y="448" class="sub">Point size reflects recurrence; distance is approximate after 2D projection.</text>
</g>
<g transform="translate(0,2220)">
<text x="32" y="26" class="panel-title">rxn_933507b5 · building block 1</text>
<text x="32" y="47" class="sub">1 unique building blocks · 1 clusters · similarity threshold 0.60</text>
<line x1="72" y1="396" x2="722" y2="396" class="axis"/>
<line x1="72" y1="66" x2="72" y2="396" class="axis"/>
<text x="397.0" y="426" text-anchor="middle" class="axis-label">MDS 1 · Tanimoto distance</text>
<text x="20" y="231.0" text-anchor="middle" transform="rotate(-90 20 231.0)" class="axis-label">MDS 2 · Tanimoto distance</text>
<polygon points="397.0,223.0 405.0,231.0 397.0,239.0 389.0,231.0" fill="#0072B2" class="centroid" stroke-width="1.5"><title>C1 | Cc1[nH]ncc1C(=O)O | occurrences 1 | best score -7.100 | centroid</title></polygon>
<text x="407.0" y="223.0" class="cluster-label">C1</text>
<text x="760" y="48" class="sub">Centroids (diamond)</text>
<polygon points="760,68 766,74 760,80 754,74" fill="#0072B2" class="centroid" stroke-width="1"/>
<text x="774" y="78" class="legend">C1 · n=1 · Cc1[nH]ncc1C(=O)O<title>Cc1[nH]ncc1C(=O)O</title></text>
<text x="72" y="448" class="sub">Point size reflects recurrence; distance is approximate after 2D projection.</text>
</g>
<g transform="translate(0,2660)">
<text x="32" y="26" class="panel-title">rxn_a46303e0 · building block 0</text>
<text x="32" y="47" class="sub">3 unique building blocks · 3 clusters · similarity threshold 0.60</text>
<line x1="72" y1="396" x2="722" y2="396" class="axis"/>
<line x1="72" y1="66" x2="72" y2="396" class="axis"/>
<text x="397.0" y="426" text-anchor="middle" class="axis-label">MDS 1 · Tanimoto distance</text>
<text x="20" y="231.0" text-anchor="middle" transform="rotate(-90 20 231.0)" class="axis-label">MDS 2 · Tanimoto distance</text>
<polygon points="704.0,230.6 712.0,238.6 704.0,246.6 696.0,238.6" fill="#0072B2" class="centroid" stroke-width="1.5"><title>C1 | CC(=O)CC(=O)O | occurrences 1 | best score -6.700 | centroid</title></polygon>
<text x="714.0" y="230.6" class="cluster-label">C1</text>
<polygon points="110.9,76.0 118.9,84.0 110.9,92.0 102.9,84.0" fill="#D55E00" class="centroid" stroke-width="1.5"><title>C2 | O=C(O)c1ccc(C(F)(F)F)cc1 | occurrences 1 | best score -6.500 | centroid</title></polygon>
<text x="120.9" y="76.0" class="cluster-label">C2</text>
<polygon points="90.0,370.0 98.0,378.0 90.0,386.0 82.0,378.0" fill="#009E73" class="centroid" stroke-width="1.5"><title>C3 | O=C(O)c1ccc(C(F)(F)F)cn1 | occurrences 1 | best score -6.000 | centroid</title></polygon>
<text x="100.0" y="370.0" class="cluster-label">C3</text>
<text x="760" y="48" class="sub">Centroids (diamond)</text>
<polygon points="760,68 766,74 760,80 754,74" fill="#0072B2" class="centroid" stroke-width="1"/>
<text x="774" y="78" class="legend">C1 · n=1 · CC(=O)CC(=O)O<title>CC(=O)CC(=O)O</title></text>
<polygon points="760,91 766,97 760,103 754,97" fill="#D55E00" class="centroid" stroke-width="1"/>
<text x="774" y="101" class="legend">C2 · n=1 · O=C(O)c1ccc(C(F)(F)F)cc1<title>O=C(O)c1ccc(C(F)(F)F)cc1</title></text>
<polygon points="760,114 766,120 760,126 754,120" fill="#009E73" class="centroid" stroke-width="1"/>
<text x="774" y="124" class="legend">C3 · n=1 · O=C(O)c1ccc(C(F)(F)F)cn1<title>O=C(O)c1ccc(C(F)(F)F)cn1</title></text>
<text x="72" y="448" class="sub">Point size reflects recurrence; distance is approximate after 2D projection.</text>
</g>
<g transform="translate(0,3100)">
<text x="32" y="26" class="panel-title">rxn_a46303e0 · building block 1</text>
<text x="32" y="47" class="sub">2 unique building blocks · 2 clusters · similarity threshold 0.60</text>
<line x1="72" y1="396" x2="722" y2="396" class="axis"/>
<line x1="72" y1="66" x2="72" y2="396" class="axis"/>
<text x="397.0" y="426" text-anchor="middle" class="axis-label">MDS 1 · Tanimoto distance</text>
<text x="20" y="231.0" text-anchor="middle" transform="rotate(-90 20 231.0)" class="axis-label">MDS 2 · Tanimoto distance</text>
<polygon points="704.0,223.0 712.0,231.0 704.0,239.0 696.0,231.0" fill="#0072B2" class="centroid" stroke-width="1.5"><title>C1 | CNC | occurrences 2 | best score -6.500 | centroid</title></polygon>
<text x="714.0" y="223.0" class="cluster-label">C1</text>
<polygon points="90.0,223.0 98.0,231.0 90.0,239.0 82.0,231.0" fill="#D55E00" class="centroid" stroke-width="1.5"><title>C2 | Nc1ccc(C(F)(F)F)cc1 | occurrences 1 | best score -6.700 | centroid</title></polygon>
<text x="100.0" y="223.0" class="cluster-label">C2</text>
<text x="760" y="48" class="sub">Centroids (diamond)</text>
<polygon points="760,68 766,74 760,80 754,74" fill="#0072B2" class="centroid" stroke-width="1"/>
<text x="774" y="78" class="legend">C1 · n=1 · CNC<title>CNC</title></text>
<polygon points="760,91 766,97 760,103 754,97" fill="#D55E00" class="centroid" stroke-width="1"/>
<text x="774" y="101" class="legend">C2 · n=1 · Nc1ccc(C(F)(F)F)cc1<title>Nc1ccc(C(F)(F)F)cc1</title></text>
<text x="72" y="448" class="sub">Point size reflects recurrence; distance is approximate after 2D projection.</text>
</g>
<g transform="translate(0,3540)">
<text x="32" y="26" class="panel-title">rxn_d222a18d · building block 0</text>
<text x="32" y="47" class="sub">2 unique building blocks · 2 clusters · similarity threshold 0.60</text>
<line x1="72" y1="396" x2="722" y2="396" class="axis"/>
<line x1="72" y1="66" x2="72" y2="396" class="axis"/>
<text x="397.0" y="426" text-anchor="middle" class="axis-label">MDS 1 · Tanimoto distance</text>
<text x="20" y="231.0" text-anchor="middle" transform="rotate(-90 20 231.0)" class="axis-label">MDS 2 · Tanimoto distance</text>
<polygon points="704.0,223.0 712.0,231.0 704.0,239.0 696.0,231.0" fill="#0072B2" class="centroid" stroke-width="1.5"><title>C1 | FC(F)(F)c1ccc(Br)nc1 | occurrences 2 | best score -7.100 | centroid</title></polygon>
<text x="714.0" y="223.0" class="cluster-label">C1</text>
<polygon points="90.0,223.0 98.0,231.0 90.0,239.0 82.0,231.0" fill="#D55E00" class="centroid" stroke-width="1.5"><title>C2 | O=C(O)c1ncc(C(F)(F)F)cc1Br | occurrences 1 | best score -7.600 | centroid</title></polygon>
<text x="100.0" y="223.0" class="cluster-label">C2</text>
<text x="760" y="48" class="sub">Centroids (diamond)</text>
<polygon points="760,68 766,74 760,80 754,74" fill="#0072B2" class="centroid" stroke-width="1"/>
<text x="774" y="78" class="legend">C1 · n=1 · FC(F)(F)c1ccc(Br)nc1<title>FC(F)(F)c1ccc(Br)nc1</title></text>
<polygon points="760,91 766,97 760,103 754,97" fill="#D55E00" class="centroid" stroke-width="1"/>
<text x="774" y="101" class="legend">C2 · n=1 · O=C(O)c1ncc(C(F)(F)F)cc1Br<title>O=C(O)c1ncc(C(F)(F)F)cc1Br</title></text>
<text x="72" y="448" class="sub">Point size reflects recurrence; distance is approximate after 2D projection.</text>
</g>
<g transform="translate(0,3980)">
<text x="32" y="26" class="panel-title">rxn_d222a18d · building block 1</text>
<text x="32" y="47" class="sub">3 unique building blocks · 3 clusters · similarity threshold 0.60</text>
<line x1="72" y1="396" x2="722" y2="396" class="axis"/>
<line x1="72" y1="66" x2="72" y2="396" class="axis"/>
<text x="397.0" y="426" text-anchor="middle" class="axis-label">MDS 1 · Tanimoto distance</text>
<text x="20" y="231.0" text-anchor="middle" transform="rotate(-90 20 231.0)" class="axis-label">MDS 2 · Tanimoto distance</text>
<polygon points="90.0,370.0 98.0,378.0 90.0,386.0 82.0,378.0" fill="#0072B2" class="centroid" stroke-width="1.5"><title>C1 | CC1(C)OB(c2ccccc2)OC1(C)C | occurrences 1 | best score -7.600 | centroid</title></polygon>
<text x="100.0" y="370.0" class="cluster-label">C1</text>
<polygon points="704.0,315.8 712.0,323.8 704.0,331.8 696.0,323.8" fill="#D55E00" class="centroid" stroke-width="1.5"><title>C2 | CC1(C)COB(c2ccc(C(F)(F)F)cn2)OC1 | occurrences 1 | best score -7.100 | centroid</title></polygon>
<text x="714.0" y="315.8" class="cluster-label">C2</text>
<polygon points="303.6,76.0 311.6,84.0 303.6,92.0 295.6,84.0" fill="#009E73" class="centroid" stroke-width="1.5"><title>C3 | CC1(C)COB(c2ccccc2)OC1 | occurrences 1 | best score -6.900 | centroid</title></polygon>
<text x="313.6" y="76.0" class="cluster-label">C3</text>
<text x="760" y="48" class="sub">Centroids (diamond)</text>
<polygon points="760,68 766,74 760,80 754,74" fill="#0072B2" class="centroid" stroke-width="1"/>
<text x="774" y="78" class="legend">C1 · n=1 · CC1(C)OB(c2ccccc2)OC1(C)C<title>CC1(C)OB(c2ccccc2)OC1(C)C</title></text>
<polygon points="760,91 766,97 760,103 754,97" fill="#D55E00" class="centroid" stroke-width="1"/>
<text x="774" y="101" class="legend">C2 · n=1 · CC1(C)COB(c2ccc(C(F)(F)F)cn2)OC1<title>CC1(C)COB(c2ccc(C(F)(F)F)cn2)OC1</title></text>
<polygon points="760,114 766,120 760,126 754,120" fill="#009E73" class="centroid" stroke-width="1"/>
<text x="774" y="124" class="legend">C3 · n=1 · CC1(C)COB(c2ccccc2)OC1<title>CC1(C)COB(c2ccccc2)OC1</title></text>
<text x="72" y="448" class="sub">Point size reflects recurrence; distance is approximate after 2D projection.</text>
</g>
<g transform="translate(0,4420)">
<text x="32" y="26" class="panel-title">rxn_decac515 · building block 0</text>
<text x="32" y="47" class="sub">3 unique building blocks · 3 clusters · similarity threshold 0.60</text>
<line x1="72" y1="396" x2="722" y2="396" class="axis"/>
<line x1="72" y1="66" x2="72" y2="396" class="axis"/>
<text x="397.0" y="426" text-anchor="middle" class="axis-label">MDS 1 · Tanimoto distance</text>
<text x="20" y="231.0" text-anchor="middle" transform="rotate(-90 20 231.0)" class="axis-label">MDS 2 · Tanimoto distance</text>
<polygon points="198.1,76.0 206.1,84.0 198.1,92.0 190.1,84.0" fill="#0072B2" class="centroid" stroke-width="1.5"><title>C1 | Nc1ccc(C(F)(F)F)cc1Cl | occurrences 1 | best score -6.300 | centroid</title></polygon>
<text x="208.1" y="76.0" class="cluster-label">C1</text>
<polygon points="90.0,370.0 98.0,378.0 90.0,386.0 82.0,378.0" fill="#D55E00" class="centroid" stroke-width="1.5"><title>C2 | Nc1ccc(C(F)(F)F)cn1 | occurrences 1 | best score -6.100 | centroid</title></polygon>
<text x="100.0" y="370.0" class="cluster-label">C2</text>
<polygon points="704.0,265.6 712.0,273.6 704.0,281.6 696.0,273.6" fill="#009E73" class="centroid" stroke-width="1.5"><title>C3 | O=Cc1cc(C(F)(F)F)ccc1NCC(=O)O | occurrences 1 | best score -6.100 | centroid</title></polygon>
<text x="714.0" y="265.6" class="cluster-label">C3</text>
<text x="760" y="48" class="sub">Centroids (diamond)</text>
<polygon points="760,68 766,74 760,80 754,74" fill="#0072B2" class="centroid" stroke-width="1"/>
<text x="774" y="78" class="legend">C1 · n=1 · Nc1ccc(C(F)(F)F)cc1Cl<title>Nc1ccc(C(F)(F)F)cc1Cl</title></text>
<polygon points="760,91 766,97 760,103 754,97" fill="#D55E00" class="centroid" stroke-width="1"/>
<text x="774" y="101" class="legend">C2 · n=1 · Nc1ccc(C(F)(F)F)cn1<title>Nc1ccc(C(F)(F)F)cn1</title></text>
<polygon points="760,114 766,120 760,126 754,120" fill="#009E73" class="centroid" stroke-width="1"/>
<text x="774" y="124" class="legend">C3 · n=1 · O=Cc1cc(C(F)(F)F)ccc1NCC(=O)O<title>O=Cc1cc(C(F)(F)F)ccc1NCC(=O)O</title></text>
<text x="72" y="448" class="sub">Point size reflects recurrence; distance is approximate after 2D projection.</text>
</g>
<g transform="translate(0,4860)">
<text x="32" y="26" class="panel-title">rxn_decac515 · building block 1</text>
<text x="32" y="47" class="sub">3 unique building blocks · 2 clusters · similarity threshold 0.60</text>
<line x1="72" y1="396" x2="722" y2="396" class="axis"/>
<line x1="72" y1="66" x2="72" y2="396" class="axis"/>
<text x="397.0" y="426" text-anchor="middle" class="axis-label">MDS 1 · Tanimoto distance</text>
<text x="20" y="231.0" text-anchor="middle" transform="rotate(-90 20 231.0)" class="axis-label">MDS 2 · Tanimoto distance</text>
<polygon points="90.0,223.0 98.0,231.0 90.0,239.0 82.0,231.0" fill="#0072B2" class="centroid" stroke-width="1.5"><title>C1 | CC(C)C(Br)C(=O)O | occurrences 1 | best score -6.300 | centroid</title></polygon>
<text x="100.0" y="223.0" class="cluster-label">C1</text>
<circle cx="90.0" cy="231.0" r="3.5" fill="#0072B2" fill-opacity="0.72" class="member-point" stroke-width="1"><title>C1 | CC(C)[C@H](Br)C(=O)O | occurrences 1 | best score -6.100</title></circle>
<polygon points="704.0,223.0 712.0,231.0 704.0,239.0 696.0,231.0" fill="#D55E00" class="centroid" stroke-width="1.5"><title>C2 | CBr | occurrences 1 | best score -6.100 | centroid</title></polygon>
<text x="714.0" y="223.0" class="cluster-label">C2</text>
<text x="760" y="48" class="sub">Centroids (diamond)</text>
<polygon points="760,68 766,74 760,80 754,74" fill="#0072B2" class="centroid" stroke-width="1"/>
<text x="774" y="78" class="legend">C1 · n=2 · CC(C)C(Br)C(=O)O<title>CC(C)C(Br)C(=O)O</title></text>
<polygon points="760,91 766,97 760,103 754,97" fill="#D55E00" class="centroid" stroke-width="1"/>
<text x="774" y="101" class="legend">C2 · n=1 · CBr<title>CBr</title></text>
<text x="72" y="448" class="sub">Point size reflects recurrence; distance is approximate after 2D projection.</text>
</g>
</svg>
